<svg width="34" height="34" viewBox="0 0 34 34" xmlns="http://www.w3.org/2000/svg"><title>C7E40C69-A7B1-4851-9557-22515611433E</title><g fill="#2A0044" fill-rule="evenodd" opacity=".296"><path d="M12.73 18.803a2.35 2.35 0 0 1-1.966 1.08c-.8 0-1.543-.42-1.967-1.08h3.934zm-1.966 1.684a2.957 2.957 0 0 0 2.655-1.684h.259a.302.302 0 1 0 0-.604H7.85a.302.302 0 0 0 0 .604h.259a2.957 2.957 0 0 0 2.655 1.684zM23.244 19.883c-.8 0-1.543-.42-1.967-1.08h3.934a2.35 2.35 0 0 1-1.967 1.08m2.914-1.684H20.33a.302.302 0 0 0 0 .604h.259a2.957 2.957 0 0 0 2.655 1.684 2.957 2.957 0 0 0 2.655-1.684h.259a.302.302 0 0 0 0-.604"/><path d="M12.823 24.092h.47a.302.302 0 0 0 .3-.302c0-.684.558-1.24 1.242-1.24h4.338c.685 0 1.241.556 1.241 1.24 0 .167.135.302.302.302h.47c.58 0 1.067.4 1.203.939h-10.77c.136-.539.624-.94 1.204-.94m11.726.94h-1.545a1.847 1.847 0 0 0-1.819-1.543h-.192a1.847 1.847 0 0 0-1.82-1.542h-1.867V10.528h5.519l-2.324 6.952a.302.302 0 0 0 .572.191l2.171-6.493 2.17 6.493a.302.302 0 0 0 .573-.191l-2.324-6.952h.495a.302.302 0 1 0 0-.604h-6.852V8.157h1.474a.86.86 0 0 1 .86.86c0 .166.135.302.302.302h.913a.302.302 0 0 0 0-.604h-.643a1.465 1.465 0 0 0-1.432-1.161h-1.474v-.316a.302.302 0 0 0-.604 0v.316h-1.474c-.704 0-1.292.499-1.432 1.161h-.643a.302.302 0 0 0 0 .604h.913a.302.302 0 0 0 .302-.302.86.86 0 0 1 .86-.86h1.474v1.767H9.85a.302.302 0 0 0 0 .604h.495L8.021 17.48a.302.302 0 0 0 .572.191l2.171-6.493 2.171 6.493a.302.302 0 0 0 .572-.191l-2.324-6.952h5.52v11.418h-1.868c-.915 0-1.675.668-1.82 1.542h-.192c-.914 0-1.675.669-1.82 1.543H9.46a.302.302 0 0 0 0 .603h15.09a.302.302 0 0 0 0-.603"/><path d="M17 .805A16.09 16.09 0 0 0 5.548 5.548 16.09 16.09 0 0 0 .805 17a16.09 16.09 0 0 0 4.743 11.452A16.09 16.09 0 0 0 17 33.195a16.09 16.09 0 0 0 11.452-4.743A16.09 16.09 0 0 0 33.195 17a16.09 16.09 0 0 0-4.743-11.452A16.09 16.09 0 0 0 17 .805M17 34c-4.54 0-8.81-1.768-12.02-4.98A16.889 16.889 0 0 1 0 17c0-4.54 1.768-8.81 4.98-12.02C8.19 1.767 12.46 0 17 0c4.54 0 8.81 1.768 12.02 4.98C32.233 8.19 34 12.46 34 17c0 4.54-1.768 8.81-4.98 12.02A16.889 16.889 0 0 1 17 34"/></g></svg>