<svg width="26" height="26" viewBox="0 0 26 26" xmlns="http://www.w3.org/2000/svg"><title>C4955F5C-0A65-4E3B-A887-014C64513D7E</title><g fill="#FFF" fill-rule="evenodd"><path d="M9.735 14.379a1.797 1.797 0 0 1-1.504.826c-.612 0-1.18-.321-1.504-.826h3.008zm-1.504 1.287c.867 0 1.663-.51 2.03-1.287h.199a.23.23 0 1 0 0-.462H6.003a.23.23 0 0 0 0 .462h.198a2.261 2.261 0 0 0 2.03 1.287zM17.775 15.205c-.612 0-1.18-.321-1.504-.826h3.008a1.797 1.797 0 0 1-1.504.826m2.228-1.288h-4.457a.23.23 0 0 0 0 .462h.198a2.261 2.261 0 0 0 2.03 1.288c.867 0 1.664-.512 2.031-1.288h.198a.23.23 0 0 0 0-.462"/><path d="M9.806 18.423h.359a.23.23 0 0 0 .23-.23.95.95 0 0 1 .95-.95h3.317a.95.95 0 0 1 .949.95c0 .127.103.23.23.23h.36a.95.95 0 0 1 .92.718H8.885a.95.95 0 0 1 .92-.718m8.967.718h-1.18a1.412 1.412 0 0 0-1.392-1.18h-.147a1.413 1.413 0 0 0-1.391-1.179h-1.428V8.051h4.22l-1.777 5.316a.231.231 0 0 0 .438.146l1.66-4.965 1.66 4.965a.23.23 0 0 0 .438-.146l-1.778-5.316h.378a.23.23 0 1 0 0-.462h-5.24V6.238h1.129c.362 0 .657.295.657.657 0 .128.103.23.23.23h.7a.23.23 0 0 0 0-.46h-.493a1.12 1.12 0 0 0-1.094-.888h-1.128v-.242a.23.23 0 0 0-.462 0v.242h-1.127a1.12 1.12 0 0 0-1.095.887h-.492a.23.23 0 0 0 0 .462h.699a.23.23 0 0 0 .23-.23c0-.363.295-.658.658-.658h1.127v1.351h-5.24a.23.23 0 0 0 0 .462h.379l-1.777 5.316a.23.23 0 0 0 .437.146l1.66-4.965 1.66 4.965a.23.23 0 0 0 .438-.146L8.552 8.051h4.22v8.731h-1.428c-.699 0-1.28.511-1.391 1.18h-.147c-.7 0-1.281.511-1.391 1.18H7.234a.23.23 0 0 0 0 .46h11.538a.23.23 0 0 0 0-.46"/><path d="M13 .615a12.303 12.303 0 0 0-8.757 3.628A12.303 12.303 0 0 0 .615 13c0 3.308 1.289 6.418 3.628 8.757A12.303 12.303 0 0 0 13 25.385c3.308 0 6.418-1.289 8.757-3.628A12.303 12.303 0 0 0 25.385 13c0-3.308-1.289-6.418-3.628-8.757A12.303 12.303 0 0 0 13 .615M13 26a12.915 12.915 0 0 1-9.192-3.808A12.915 12.915 0 0 1 0 13c0-3.472 1.352-6.737 3.808-9.192A12.915 12.915 0 0 1 13 0c3.472 0 6.737 1.352 9.192 3.808A12.915 12.915 0 0 1 26 13c0 3.472-1.352 6.737-3.808 9.192A12.915 12.915 0 0 1 13 26"/></g></svg>